<svg width="20" height="21" viewBox="0 0 20 21" fill="none" xmlns="http://www.w3.org/2000/svg">
<path fill-rule="evenodd" clip-rule="evenodd" d="M4.16667 9.72345C4.16667 6.98938 6.40917 4.76593 9.16667 4.76593C11.9242 4.76593 14.1667 6.98938 14.1667 9.72345C14.1667 12.4575 11.9242 14.681 9.16667 14.681C6.40917 14.681 4.16667 12.4575 4.16667 9.72345ZM17.2558 16.5756L14.4267 13.7696C15.3042 12.6509 15.8333 11.2487 15.8333 9.72345C15.8333 6.07885 12.8425 3.11343 9.16667 3.11343C5.49083 3.11343 2.5 6.07885 2.5 9.72345C2.5 13.3681 5.49083 16.3335 9.16667 16.3335C10.705 16.3335 12.1192 15.8088 13.2475 14.9388L16.0775 17.7439C16.24 17.905 16.4533 17.986 16.6667 17.986C16.88 17.986 17.0933 17.905 17.2558 17.7439C17.5817 17.4208 17.5817 16.8986 17.2558 16.5756Z" fill="#8D8D8D"/>
<mask id="mask0_3248_152" style="mask-type:luminance" maskUnits="userSpaceOnUse" x="2" y="3" width="16" height="15">
<path fill-rule="evenodd" clip-rule="evenodd" d="M4.16667 9.72345C4.16667 6.98938 6.40917 4.76593 9.16667 4.76593C11.9242 4.76593 14.1667 6.98938 14.1667 9.72345C14.1667 12.4575 11.9242 14.681 9.16667 14.681C6.40917 14.681 4.16667 12.4575 4.16667 9.72345ZM17.2558 16.5756L14.4267 13.7696C15.3042 12.6509 15.8333 11.2487 15.8333 9.72345C15.8333 6.07885 12.8425 3.11343 9.16667 3.11343C5.49083 3.11343 2.5 6.07885 2.5 9.72345C2.5 13.3681 5.49083 16.3335 9.16667 16.3335C10.705 16.3335 12.1192 15.8088 13.2475 14.9388L16.0775 17.7439C16.24 17.905 16.4533 17.986 16.6667 17.986C16.88 17.986 17.0933 17.905 17.2558 17.7439C17.5817 17.4208 17.5817 16.8986 17.2558 16.5756Z" fill="white"/>
</mask>
<g mask="url(#mask0_3248_152)">
<rect y="0.634666" width="20" height="19.8301" fill="#8D8D8D"/>
</g>
</svg>
